<?xml version="1.0" encoding="utf-8"?>
<svg width="132" height="48" viewBox="0 0 34.924972 12.7" version="1.1" id="svg8" xmlns="http://www.w3.org/2000/svg">
  <g transform="matrix(1.331968, 0, 0, 1.331968, -8.348233, 16.876278)" style="">
    <path style="vector-effect: non-scaling-stroke; fill: rgb(0, 174, 239); paint-order: fill;" d="M 10.32 -11.14 C 10.32 -11.14 10.907 -11.224 11.177 -10.6 C 11.447 -9.976 10.338 -9.314 10.124 -9.193 C 9.91 -9.072 9.397 -8.634 9.267 -8.252 C 9.137 -7.87 9.053 -7.59 9.192 -7.152 C 9.331 -6.714 9.555 -6.412 9.844 -6.155 C 10.133 -5.898 10.088 -5.945 10.599 -5.596 C 11.11 -5.247 11.279 -5.214 11.279 -5.214 C 11.279 -5.214 10.683 -5.195 10.245 -5.261 C 9.807 -5.327 9.332 -5.493 8.922 -5.68 C 8.512 -5.867 8.176 -6.099 7.878 -6.444 C 7.58 -6.789 7.496 -6.994 7.459 -7.217 C 7.422 -7.44 7.3 -7.982 7.804 -8.634 C 8.308 -9.286 9.034 -9.556 9.313 -9.668 C 9.592 -9.78 9.752 -9.799 10.143 -10.032 C 10.534 -10.265 10.617 -10.358 10.627 -10.638 C 10.637 -10.918 10.31 -11.14 10.32 -11.14 Z"/>
    <ellipse style="vector-effect: non-scaling-stroke; fill: rgb(0, 174, 239);" cx="11.363" cy="-7.606" rx="1.423" ry="1.423"/>
    <path style="vector-effect: non-scaling-stroke; fill: rgb(0, 174, 239);" d="M 14.333 -5.2 C 14.333 -5.2 14.92 -5.116 15.19 -5.74 C 15.46 -6.364 14.351 -7.026 14.137 -7.147 C 13.923 -7.268 13.41 -7.706 13.28 -8.088 C 13.15 -8.47 13.066 -8.75 13.205 -9.188 C 13.344 -9.626 13.568 -9.928 13.857 -10.185 C 14.146 -10.442 14.101 -10.395 14.612 -10.744 C 15.123 -11.093 15.292 -11.126 15.292 -11.126 C 15.292 -11.126 14.696 -11.145 14.258 -11.079 C 13.82 -11.013 13.345 -10.847 12.935 -10.66 C 12.525 -10.473 12.189 -10.241 11.891 -9.896 C 11.593 -9.551 11.509 -9.346 11.472 -9.123 C 11.435 -8.9 11.313 -8.358 11.817 -7.706 C 12.321 -7.054 13.047 -6.784 13.326 -6.672 C 13.605 -6.56 13.765 -6.541 14.156 -6.308 C 14.547 -6.075 14.63 -5.982 14.64 -5.702 C 14.65 -5.422 14.323 -5.2 14.333 -5.2 Z" transform="matrix(-1, 0, 0, -1, 26.72401, -16.324757)"/>
  </g>
  <text style="fill: rgb(51, 51, 51); font-family: Arial, sans-serif; font-size: 3.5px; font-weight: 700; white-space: pre;" x="12.446" y="6.152">SULTANGAZİ</text>
  <text style="fill: rgb(51, 51, 51); font-family: Arial, sans-serif; font-size: 2.9px; white-space: pre;" x="14.656" y="9.131">BELEDİYESİ</text>
</svg>